{
.appVersion = "3133";
.formatVersion = 3;
DisplayStrings = (
"ՈՐՌՍՈԱ
Ա/Ayb-arm.alt.1/Ayb-arm.alt.2/Ayb-arm.alt.3",
"ՑՍՇՍԾ
ՅՏ",
"ՏՊԱՎՈՐՈՒԹՅՈՒՆՆԵՐ
ՀԻՇԱՏԱԿՆԵՐ
ԱՆՑԱԾՆ
ՄՆԱՑԱԾԸ",
"ԱԲԳԴԵԶԷԸԹԺԻԼԽԾԿՀՁՂՃՄՅՆՇՈՉՊՋՌՍՎՏՐՑՒՓՔՕՖ
ՍՍԱՍՍԵՍՍԿՍՍՆՍՍՄՍՍ
ՈՈՐՈՈԸՈՈԻՈՈԴՈՈՂՈՈ
ՍՍԿՍՍՎՍՍՆՍՍԽՍՍ
ՈՈՆՈՈՄՈՈԺՈՈԳՈՈԴՈՈՌՈՈՂՈՈՎՈՈ
ՍՍՆՍՍՄՍՍԺՍՍԳՍՍԴՍՍՌՍՍՂՍՍՎՍՍ
ՈՈԳՈՈՔՈՈ
ՍՍՅՍՍՑՍՍՏՍՍՇՍՍՉՍՍ
ՈՈՅՈՈՑՈՈՏՍՍՇՈՈՉՈՈ
ՈՈԹՈՈՊՈՈՖՈՈՓՈՈ
ՍՍԹՍՍՊՍՍՖՍՍՓՍՍ
ՈՈԶՈՈՋՈՈՁՈՈ
ՍՍԶՍՍՋՍՍՁՍՍ
ՕՕԶՕՕՋՕՕՁՕՕ",
"Ո"
);
customParameters = (
{
name = "Guides Palette Config";
value = {
showAngle = 1;
showCoordinates = 1;
sortBy = "";
tagPrefix = guide_;
};
}
);
date = "2022-08-07 09:43:13 +0000";
familyName = Unarmed;
featurePrefixes = (
{
automatic = 1;
code = "languagesystem DFLT dflt;
";
name = Languagesystems;
}
);
features = (
{
automatic = 1;
code = "feature calt;
";
tag = aalt;
},
{
code = "sub Ayb-arm' Ken-arm by Ayb-arm.alt.1;
sub Ayb-arm' Vew-arm by Ayb-arm.alt.1;
sub Ayb-arm' Now-arm by Ayb-arm.alt.2;
sub Ayb-arm' Ca-arm by Ayb-arm.alt.3;
sub Vew-arm Vo-arm' by Vo-arm.alt;";
tag = calt;
},
{
automatic = 1;
code = "lookupflag IgnoreMarks;
sub ech-arm yiwn-arm by ech_yiwn-arm;
";
tag = dlig;
},
{
automatic = 1;
code = "lookupflag IgnoreMarks;
sub Ayb-arm Co-arm by Ayb_Co-arm.liga;
sub Men-arm Now-arm by Men_Now-arm.liga;
sub To-arm Yi-arm by To_Yi-arm.liga;
sub Yiwn-arm Now-arm by Yiwn_Now-arm.liga;
";
tag = liga;
}
);
fontMaster = (
{
id = m01;
metricValues = (
{
over = 16;
pos = 800;
},
{
over = -16;
},
{
over = -16;
pos = -200;
}
);
name = Regular;
userData = {
GSCornerRadius = 12;
};
}
);
glyphs = (
{
glyphname = "Ayb-arm";
lastChange = "2022-08-12 10:08:05 +0000";
layers = (
{
backgroundImage = {
imagePath = "Images/A_yb-arm-Regular.tif";
pos = (443,-65);
scale = (2.7955,2.7955);
};
layerId = m01;
shapes = (
{
closed = 1;
nodes = (
(256,800,l),
(268,736,o),
(301,433,o),
(301,264,cs),
(301,122,ls),
(301,37,o),
(244,-6,o),
(183,-6,cs),
(132,-6,o),
(110,37,o),
(110,122,cs),
(110,800,l),
(50,800,l),
(50,152,ls),
(50,39,o),
(105,-16,o),
(183,-16,cs),
(271,-16,o),
(316,61,o),
(316,112,cs),
(316,800,l)
);
},
{
closed = 1;
nodes = (
(261,112,o),
(233,170,o),
(233,265,cs),
(233,320,o),
(237,483,o),
(276,751,c),
(263,756,l),
(225,484,o),
(223,318,o),
(223,260,cs),
(223,170,o),
(249,107,o),
(294,60,c),
(301,68,l)
);
},
{
closed = 1;
nodes = (
(353,1,ls),
(355,-1,o),
(357,0,o),
(357,2,cs),
(357,57,ls),
(357,58,o),
(357,60,o),
(355,62,cs),
(307,112,l),
(295,61,l)
);
}
);
width = 377;
}
);
metricLeft = "Vo-arm";
unicode = 1329;
},
{
glyphname = "Da-arm";
lastChange = "2022-08-12 09:53:33 +0000";
layers = (
{
layerId = m01;
shapes = (
{
pos = (356,0);
ref = "Vo-arm";
scale = (-1,1);
},
{
closed = 1;
nodes = (
(40,0,l),
(40,485,l),
(100,485,l),
(100,0,l)
);
},
{
closed = 1;
nodes = (
(246,0,l),
(306,0,l)
);
},
{
closed = 1;
nodes = (
(430,581,l),
(430,528,ls),
(430,525,o),
(429,523,o),
(426,525,cs),
(393,547,o),
(359,563,o),
(324,572,cs),
(320,573,o),
(316,574,o),
(316,577,cs),
(316,579,o),
(317,581,o),
(321,581,cs)
);
}
);
width = 450;
}
);
metricLeft = "=Vo-arm-10";
metricRight = "Ra-arm";
unicode = 1332;
},
{
glyphname = "Ech-arm";
lastChange = "2022-08-12 10:07:58 +0000";
layers = (
{
layerId = m01;
shapes = (
{
pos = (0,800);
ref = "Vo-arm";
scale = (1,-1);
},
{
closed = 1;
nodes = (
(316,800,l),
(316,225,l),
(256,225,l),
(256,800,l)
);
},
{
closed = 1;
nodes = (
(103,539,l),
(192,528,o),
(266,517,o),
(344,500,cs),
(348,499,o),
(352,502,o),
(352,507,cs),
(354,540,ls),
(354,548,o),
(349,552,o),
(341,552,cs),
(103,544,l)
);
}
);
width = 374;
}
);
metricLeft = "Vo-arm";
unicode = 1333;
},
{
glyphname = "Et-arm";
lastChange = "2022-08-12 08:52:26 +0000";
layers = (
{
layerId = m01;
shapes = (
{
pos = (366,0);
ref = "Vo-arm";
scale = (-1,1);
},
{
closed = 1;
nodes = (
(256,0,l),
(256,485,l),
(316,485,l),
(316,0,l)
);
},
{
closed = 1;
nodes = (
(256,0,l),
(316,0,l)
);
},
{
closed = 1;
nodes = (
(264,0,ls),
(307,0,o),
(320,-16,o),
(341,-68,c),
(401,-68,l),
(376,2,o),
(364,10,o),
(276,10,cs),
(61,10,l),
(61,0,l)
);
}
);
width = 421;
}
);
metricLeft = "Vo-arm";
unicode = 1336;
},
{
glyphname = "To-arm";
lastChange = "2022-08-12 09:21:40 +0000";
layers = (
{
layerId = m01;
shapes = (
{
closed = 1;
nodes = (
(356,162,l),
(356,67,o),
(346,4,o),
(307,4,cs),
(279,4,o),
(257,37,o),
(257,81,cs),
(257,136,o),
(292,172,o),
(352,172,cs),
(476,172,l),
(476,182,l),
(334,182,ls),
(236,182,o),
(197,134,o),
(197,82,cs),
(197,32,o),
(234,-16,o),
(301,-16,cs),
(384,-16,o),
(416,50,o),
(416,162,c),
(416,648,l),
(416,761,o),
(321,816,o),
(233,816,cs),
(145,816,o),
(50,761,o),
(50,648,cs),
(50,0,l),
(110,0,l),
(110,678,ls),
(110,763,o),
(172,806,o),
(233,806,cs),
(294,806,o),
(356,763,o),
(356,678,c)
);
}
);
width = 496;
}
);
metricLeft = "Vo-arm";
unicode = 1337;
},
{
glyphname = "Ini-arm";
lastChange = "2022-08-12 08:33:37 +0000";
layers = (
{
layerId = m01;
shapes = (
{
closed = 1;
nodes = (
(50,0,l),
(110,0,l),
(110,800,l),
(50,800,l)
);
},
{
closed = 1;
nodes = (
(86,629,l),
(102,646,o),
(125,655,o),
(152,655,cs),
(213,655,o),
(250,612,o),
(250,527,cs),
(250,339,l),
(310,339,l),
(310,497,ls),
(310,620,o),
(250,665,o),
(152,665,cs),
(128,665,o),
(103,660,o),
(81,649,c)
);
}
);
width = 350;
}
);
metricLeft = "Vo-arm";
metricRight = "=Vo-arm-10";
unicode = 1339;
},
{
glyphname = "Ca-arm";
lastChange = "2022-08-12 08:53:15 +0000";
layers = (
{
backgroundImage = {
imagePath = "Images/C_a-arm-Regular.tif";
pos = (968,-75);
scale = (3.3132,3.3132);
};
layerId = m01;
shapes = (
{
closed = 1;
nodes = (
(361,-6,o),
(229,139,o),
(229,335,cs),
(229,531,o),
(361,676,o),
(514,676,cs),
(667,676,o),
(799,531,o),
(799,335,cs),
(799,139,o),
(667,-6,o),
(514,-6,cs)
);
},
{
closed = 1;
nodes = (
(709,-16,o),
(859,144,o),
(859,335,cs),
(859,529,o),
(707,686,o),
(514,686,cs),
(319,686,o),
(169,526,o),
(169,335,cs),
(169,144,o),
(319,-16,o),
(514,-16,cs)
);
},
{
closed = 1;
nodes = (
(514,676,cs),
(605,676,o),
(645,683,o),
(696,683,cs),
(807,683,o),
(882,647,o),
(925,596,c),
(925,666,l),
(850,689,o),
(781,695,o),
(734,695,cs),
(662,695,o),
(603,686,o),
(514,686,cs),
(281,686,o),
(90,697,o),
(90,796,c),
(20,796,l),
(20,702,o),
(189,676,o)
);
}
);
width = 945;
}
);
unicode = 1342;
},
{
glyphname = "Ken-arm";
lastChange = "2022-08-12 10:08:23 +0000";
layers = (
{
layerId = m01;
shapes = (
{
closed = 1;
nodes = (
(300,590,l),
(240,590,l),
(240,0,l),
(300,0,l)
);
},
{
closed = 1;
nodes = (
(264,321,l),
(248,304,o),
(225,295,o),
(198,295,cs),
(137,295,o),
(100,338,o),
(100,423,cs),
(100,800,l),
(40,800,l),
(40,453,ls),
(40,330,o),
(100,285,o),
(198,285,cs),
(222,285,o),
(247,290,o),
(269,301,c)
);
}
);
width = 340;
}
);
metricLeft = "=Vo-arm-10";
metricRight = "=Vo-arm-10";
unicode = 1343;
},
{
glyphname = "Ho-arm";
lastChange = "2022-08-12 09:53:53 +0000";
layers = (
{
layerId = m01;
shapes = (
{
closed = 1;
nodes = (
(399,238,l),
(70,376,l),
(484,800,l),
(410,800,l),
(20,343,l),
(379,191,l),
(444,0,l),
(456,0,l)
);
}
);
width = 504;
}
);
unicode = 1344;
},
{
glyphname = "Ghad-arm";
lastChange = "2022-08-12 09:52:18 +0000";
layers = (
{
layerId = m01;
shapes = (
{
pos = (356,0);
ref = "Vo-arm";
scale = (-1,1);
},
{
closed = 1;
nodes = (
(40,0,l),
(40,485,l),
(100,485,l),
(100,0,l)
);
},
{
closed = 1;
nodes = (
(246,0,l),
(306,0,l)
);
},
{
closed = 1;
nodes = (
(337,0,ls),
(380,0,o),
(393,-16,o),
(414,-68,c),
(474,-68,l),
(449,2,o),
(437,10,o),
(349,10,cs),
(246,10,l),
(246,0,l)
);
}
);
width = 494;
}
);
metricLeft = "=Vo-arm-10";
unicode = 1346;
},
{
glyphname = "Men-arm";
lastChange = "2022-08-12 08:54:29 +0000";
layers = (
{
layerId = m01;
shapes = (
{
closed = 1;
nodes = (
(450,790,ls),
(459,790,o),
(465,774,o),
(486,732,c),
(546,732,l),
(521,792,o),
(519,800,o),
(508,800,cs),
(256,800,l),
(256,790,l)
);
},
{
closed = 1;
nodes = (
(256,800,l),
(256,122,ls),
(256,37,o),
(244,-6,o),
(183,-6,cs),
(122,-6,o),
(110,37,o),
(110,122,cs),
(110,800,l),
(50,800,l),
(50,152,ls),
(50,39,o),
(105,-16,o),
(183,-16,cs),
(261,-16,o),
(316,39,o),
(316,152,cs),
(316,800,l)
);
}
);
width = 566;
}
);
metricLeft = "Vo-arm";
unicode = 1348;
},
{
glyphname = "Yi-arm";
lastChange = "2022-08-12 09:06:29 +0000";
layers = (
{
backgroundImage = {
imagePath = "Images/Y_i-arm-Regular.tif";
pos = (621,-80);
scale = (6.5299,6.5299);
};
layerId = m01;
shapes = (
{
closed = 1;
nodes = (
(39,64,o),
(174,-16,o),
(310,-16,cs),
(463,-16,o),
(590,84,o),
(590,242,cs),
(590,362,o),
(510,474,o),
(385,474,cs),
(302,474,o),
(152,483,o),
(100,487,cs),
(64,490,o),
(43,494,o),
(39,494,cs),
(34,494,o),
(30,491,o),
(30,486,cs),
(30,438,ls),
(30,434,o),
(32,434,o),
(38,435,cs),
(95,444,o),
(278,468,o),
(385,464,cs),
(474,461,o),
(530,361,o),
(530,242,cs),
(530,78,o),
(430,-6,o),
(310,-6,cs),
(205,-6,o),
(99,58,o),
(99,175,c),
(39,175,l)
);
},
{
closed = 1;
nodes = (
(466,509,o),
(520,568,o),
(520,645,cs),
(520,748,o),
(423,816,o),
(310,816,cs),
(205,816,o),
(114,757,o),
(101,679,c),
(161,664,l),
(180,757,o),
(238,796,o),
(309,796,cs),
(384,796,o),
(460,753,o),
(460,632,cs),
(460,568,o),
(439,511,o),
(391,468,c),
(416,468,l)
);
}
);
width = 620;
}
);
unicode = 1349;
},
{
glyphname = "Now-arm";
lastChange = "2022-08-12 09:05:56 +0000";
layers = (
{
layerId = m01;
shapes = (
{
pos = (190,800);
ref = "Vo-arm";
scale = (1,-1);
},
{
closed = 1;
nodes = (
(506,800,l),
(506,275,l),
(446,275,l),
(446,800,l)
);
},
{
closed = 1;
nodes = (
(300,800,l),
(300,732,l),
(240,732,l),
(240,800,l)
);
},
{
closed = 1;
nodes = (
(157,732,ls),
(114,732,o),
(101,748,o),
(80,800,c),
(20,800,l),
(45,730,o),
(57,722,o),
(145,722,cs),
(300,722,l),
(300,732,l)
);
}
);
width = 556;
}
);
metricRight = "Vo-arm";
unicode = 1350;
},
{
glyphname = "Sha-arm";
lastChange = "2022-08-12 09:32:14 +0000";
layers = (
{
backgroundImage = {
imagePath = "Images/S_ha-arm-Regular.tif";
pos = (777,-72);
scale = (4.7778,4.7778);
};
layerId = m01;
shapes = (
{
closed = 1;
nodes = (
(612,239,l),
(612,117,o),
(526,-6,o),
(367,-6,cs),
(201,-6,o),
(75,138,o),
(75,335,cs),
(75,529,o),
(201,671,o),
(352,671,cs),
(511,671,o),
(577,574,o),
(590,561,c),
(603,571,l),
(585,592,o),
(515,681,o),
(352,681,cs),
(156,681,o),
(15,527,o),
(15,335,cs),
(15,126,o),
(180,-16,o),
(364,-16,cs),
(557,-16,o),
(684,140,o),
(684,239,c)
);
},
{
closed = 1;
nodes = (
(636,589,o),
(597,700,o),
(521,757,cs),
(468,797,o),
(414,798,o),
(312,800,cs),
(41,805,l),
(41,790,l),
(308,783,ls),
(380,781,o),
(434,771,o),
(469,742,cs),
(487,727,o),
(520,690,o),
(600,542,c),
(659,537,l)
);
}
);
width = 699;
}
);
unicode = 1351;
},
{
glyphname = "Vo-arm";
lastChange = "2022-08-16 09:56:58 +0000";
layers = (
{
layerId = m01;
shapes = (
{
closed = 1;
nodes = (
(316,648,ls),
(316,761,o),
(261,816,o),
(183,816,cs),
(105,816,o),
(50,761,o),
(50,648,cs),
(50,0,l),
(110,0,l),
(110,678,ls),
(110,763,o),
(122,806,o),
(183,806,cs),
(244,806,o),
(256,763,o),
(256,678,cs),
(256,0,l),
(316,0,l)
);
}
);
width = 366;
},
{
associatedMasterId = m01;
backgroundImage = {
imagePath = "Images/V_o-arm-Aug 8, 22, 22:41.tif";
pos = (620,-62);
scale = (2.8745,2.8745);
};
layerId = "394C2D38-B5E8-408D-82FB-0414CD69F20D";
name = "Aug 8, 22, 22:41";
shapes = (
{
attr = {
strokeHeight = 10;
strokeWidth = 60;
};
closed = 0;
nodes = (
(100,0,l),
(100,668,ls),
(100,753,o),
(148,811,o),
(205,811,cs),
(261,811,o),
(310,751,o),
(310,668,cs),
(310,0,l)
);
}
);
width = 600;
}
);
unicode = 1352;
},
{
glyphname = "Peh-arm";
lastChange = "2022-08-12 09:30:59 +0000";
layers = (
{
layerId = m01;
shapes = (
{
closed = 1;
nodes = (
(51,560,o),
(30,590,o),
(30,648,cs),
(30,761,o),
(130,816,o),
(218,816,cs),
(306,816,o),
(406,761,o),
(406,648,cs),
(406,0,l),
(346,0,l),
(346,678,ls),
(346,763,o),
(279,806,o),
(218,806,cs),
(157,806,o),
(90,763,o),
(90,653,cs),
(90,580,o),
(90,554,o),
(119,539,c),
(117,535,l)
);
},
{
closed = 1;
nodes = (
(248,809,l),
(248,370,l),
(188,370,l),
(188,809,l)
);
}
);
width = 456;
}
);
metricRight = "Vo-arm";
unicode = 1354;
},
{
glyphname = "Ra-arm";
lastChange = "2022-08-12 09:53:25 +0000";
layers = (
{
layerId = m01;
shapes = (
{
ref = "Vo-arm";
},
{
closed = 1;
nodes = (
(440,581,l),
(440,528,ls),
(440,525,o),
(439,523,o),
(436,525,cs),
(403,547,o),
(369,563,o),
(334,572,cs),
(330,573,o),
(326,574,o),
(326,577,cs),
(326,579,o),
(327,581,o),
(331,581,cs)
);
}
);
width = 460;
}
);
unicode = 1356;
},
{
glyphname = "Vew-arm";
lastChange = "2022-08-12 10:09:24 +0000";
layers = (
{
layerId = m01;
shapes = (
{
closed = 1;
nodes = (
(300,800,l),
(240,800,l),
(240,0,l),
(300,0,l)
);
},
{
closed = 1;
nodes = (
(264,361,l),
(248,344,o),
(225,335,o),
(198,335,cs),
(137,335,o),
(100,378,o),
(100,463,cs),
(100,606,l),
(40,606,l),
(40,493,ls),
(40,370,o),
(100,325,o),
(198,325,cs),
(222,325,o),
(247,330,o),
(269,341,c)
);
},
{
closed = 1;
nodes = (
(434,0,ls),
(443,0,o),
(449,-16,o),
(470,-58,c),
(530,-58,l),
(505,2,o),
(503,10,o),
(492,10,cs),
(240,10,l),
(240,0,l)
);
}
);
width = 550;
}
);
metricLeft = "=Vo-arm-10";
unicode = 1358;
},
{
glyphname = "Tiwn-arm";
lastChange = "2022-08-12 09:49:18 +0000";
layers = (
{
associatedMasterId = m01;
backgroundImage = {
imagePath = "Images/T_iwn-arm-Regular.tif";
pos = (116,-59);
scale = (4.0641,4.0641);
};
layerId = "AC46BB8F-E444-43B0-AFF2-84047CA30474";
name = Skeleton;
shapes = (
{
attr = {
strokeHeight = 10;
strokeWidth = 60;
};
closed = 0;
nodes = (
(431,714,l),
(431,757,o),
(352,809,o),
(298,809,cs),
(242,809,o),
(170,782,o),
(170,701,cs),
(170,581,o),
(415,272,o),
(415,152,cs),
(415,68,o),
(380,-5,o),
(313,-5,cs),
(254,-5,o),
(161,34,o),
(161,85,cs)
);
}
);
width = 600;
},
{
backgroundImage = {
imagePath = "Images/T_iwn-arm-Regular.tif";
pos = (-4,-59);
scale = (4.0641,4.0641);
};
layerId = m01;
name = Regular;
shapes = (
{
closed = 1;
nodes = (
(76,8,o),
(134,-16,o),
(187,-16,cs),
(281,-16,o),
(315,60,o),
(315,118,cs),
(315,279,o),
(70,606,o),
(70,716,cs),
(70,764,o),
(118,794,o),
(166,794,cs),
(215,794,o),
(250,764,o),
(278,710,cs),
(282,703,o),
(295,668,o),
(302,668,cs),
(307,668,o),
(312,672,o),
(312,746,cs),
(312,752,o),
(311,757,o),
(304,764,cs),
(284,784,o),
(238,814,o),
(175,814,cs),
(103,814,o),
(20,768,o),
(20,704,cs),
(20,600,o),
(275,226,o),
(275,99,cs),
(275,50,o),
(244,4,o),
(187,4,cs),
(132,4,o),
(98,46,o),
(72,102,cs),
(57,134,o),
(56,151,o),
(47,151,cs),
(34,151,o),
(36,84,o),
(36,65,cs),
(36,37,o),
(40,32,o),
(57,21,cs)
);
}
);
width = 335;
}
);
unicode = 1359;
},
{
glyphname = "Reh-arm";
lastChange = "2022-08-12 08:45:34 +0000";
layers = (
{
layerId = m01;
shapes = (
{
ref = "Vo-arm";
},
{
closed = 1;
nodes = (
(316,544,l),
(316,0,l),
(256,0,l),
(256,544,l)
);
}
);
width = 356;
}
);
metricLeft = "Vo-arm";
metricRight = "=Vo-arm-10";
unicode = 1360;
},
{
glyphname = "Co-arm";
lastChange = "2022-08-12 09:58:31 +0000";
layers = (
{
backgroundImage = {
imagePath = "Images/C_o-arm-Regular.tif";
pos = (915,-79);
scale = (7.2813,7.2813);
};
layerId = m01;
shapes = (
{
closed = 1;
nodes = (
(159,143,o),
(314,-16,o),
(501,-16,cs),
(697,-16,o),
(842,116,o),
(842,335,cs),
(842,517,o),
(701,681,o),
(505,681,cs),
(322,681,o),
(171,664,o),
(20,630,c),
(20,552,l),
(64,579,o),
(215,671,o),
(505,671,cs),
(656,671,o),
(782,519,o),
(782,335,cs),
(782,128,o),
(670,-6,o),
(501,-6,cs),
(345,-6,o),
(231,120,o),
(231,279,c),
(159,279,l)
);
},
{
closed = 1;
nodes = (
(484,681,o),
(461,703,o),
(461,745,cs),
(461,787,o),
(484,809,o),
(505,809,cs),
(528,809,o),
(550,787,o),
(550,745,cs),
(550,703,o),
(528,681,o),
(505,681,cs)
);
},
{
closed = 1;
nodes = (
(557,674,o),
(610,703,o),
(610,745,cs),
(610,787,o),
(557,816,o),
(505,816,cs),
(455,816,o),
(401,787,o),
(401,745,cs),
(401,703,o),
(455,674,o),
(505,674,cs)
);
}
);
width = 862;
},
{
associatedMasterId = m01;
backgroundImage = {
imagePath = "Images/C_o-arm-Regular.tif";
pos = (1141,-79);
scale = (7.2813,7.2813);
};
layerId = "5B52E91E-FE11-4276-9B35-072D52AED0CB";
name = Skeleton;
shapes = (
{
attr = {
strokeHeight = 10;
strokeWidth = 60;
};
closed = 0;
nodes = (
(86,596,l),
(123,619,o),
(295,676,o),
(573,676,cs),
(746,676,o),
(880,514,o),
(880,339,cs),
(880,135,o),
(770,-6,o),
(560,-6,cs),
(415,-6,o),
(263,118,o),
(263,284,c)
);
},
{
attr = {
strokeHeight = 10;
strokeWidth = 60;
};
closed = 1;
nodes = (
(615,676,o),
(648,707,o),
(648,743,cs),
(648,779,o),
(615,811,o),
(573,811,cs),
(533,811,o),
(499,779,o),
(499,743,cs),
(499,707,o),
(533,676,o),
(573,676,cs)
);
}
);
width = 997;
}
);
metricRight = "Oh-arm";
unicode = 1361;
},
{
glyphname = "Yiwn-arm";
lastChange = "2022-08-12 08:28:24 +0000";
layers = (
{
layerId = m01;
shapes = (
{
closed = 1;
nodes = (
(50,0,l),
(110,0,l),
(110,800,l),
(50,800,l)
);
},
{
closed = 1;
nodes = (
(240,581,l),
(240,528,ls),
(240,525,o),
(239,523,o),
(236,525,cs),
(201,547,o),
(165,563,o),
(128,572,cs),
(124,573,o),
(120,574,o),
(120,577,cs),
(120,579,o),
(121,581,o),
(125,581,cs)
);
}
);
width = 264;
}
);
metricLeft = "Vo-arm";
unicode = 1362;
},
{
glyphname = "Oh-arm";
lastChange = "2022-08-12 09:58:20 +0000";
layers = (
{
layerId = m01;
shapes = (
{
closed = 1;
nodes = (
(554,806,o),
(660,608,o),
(660,398,cs),
(660,188,o),
(554,-6,o),
(373,-6,cs),
(192,-6,o),
(80,188,o),
(80,398,cs),
(80,608,o),
(192,806,o),
(373,806,cs)
);
},
{
closed = 1;
nodes = (
(141,816,o),
(20,602,o),
(20,398,cs),
(20,193,o),
(141,-16,o),
(373,-16,cs),
(606,-16,o),
(720,194,o),
(720,398,cs),
(720,603,o),
(606,816,o),
(373,816,cs)
);
}
);
width = 740;
}
);
unicode = 1365;
},
{
glyphname = "Vo-arm.alt";
lastChange = "2022-08-12 08:44:27 +0000";
layers = (
{
layerId = m01;
shapes = (
{
ref = "Vo-arm";
},
{
closed = 1;
nodes = (
(110,116,l),
(110,0,l),
(50,0,l),
(50,116,l)
);
},
{
closed = 1;
nodes = (
(316,116,l),
(316,0,l),
(256,0,l),
(256,116,l)
);
}
);
width = 366;
}
);
},
{
glyphname = "Ayb-arm.alt.1";
lastChange = "2022-08-12 09:00:33 +0000";
layers = (
{
layerId = m01;
shapes = (
{
closed = 1;
nodes = (
(246,800,l),
(258,736,o),
(291,433,o),
(291,264,cs),
(291,122,ls),
(291,37,o),
(234,-6,o),
(173,-6,cs),
(122,-6,o),
(100,37,o),
(100,122,cs),
(100,800,l),
(40,800,l),
(40,152,ls),
(40,39,o),
(95,-16,o),
(173,-16,cs),
(261,-16,o),
(306,61,o),
(306,112,cs),
(306,800,l)
);
},
{
closed = 1;
nodes = (
(251,112,o),
(223,170,o),
(223,265,cs),
(223,320,o),
(227,483,o),
(266,751,c),
(253,756,l),
(215,484,o),
(213,318,o),
(213,260,cs),
(213,170,o),
(239,107,o),
(284,60,c),
(291,68,l)
);
},
{
closed = 1;
nodes = (
(341,2,ls),
(342,1,o),
(343,0,o),
(346,0,cs),
(392,0,ls),
(394,0,o),
(395,2,o),
(394,4,cs),
(297,112,l),
(285,61,l)
);
}
);
width = 404;
}
);
},
{
glyphname = "Ayb-arm.alt.2";
lastChange = "2022-08-12 08:21:11 +0000";
layers = (
{
backgroundImage = {
imagePath = "Images/A_yb-arm.alt.2-Regular.tif";
pos = (424,-143);
scale = (5.3224,5.3224);
};
layerId = m01;
shapes = (
{
closed = 1;
nodes = (
(256,635,l),
(268,587,o),
(301,356,o),
(301,228,cs),
(301,120,ls),
(301,37,o),
(244,-6,o),
(183,-6,cs),
(132,-6,o),
(110,37,o),
(110,122,cs),
(110,800,l),
(50,800,l),
(50,152,ls),
(50,39,o),
(105,-16,o),
(183,-16,cs),
(271,-16,o),
(316,61,o),
(316,112,cs),
(316,635,l)
);
},
{
closed = 1;
nodes = (
(256,87,o),
(229,107,o),
(229,226,cs),
(229,373,o),
(268,552,o),
(269,630,c),
(256,635,l),
(256,552,o),
(219,369,o),
(219,224,cs),
(219,107,o),
(244,84,o),
(288,44,c),
(294,51,l)
);
},
{
closed = 1;
nodes = (
(366,-15,ls),
(368,-17,o),
(370,-16,o),
(370,-14,cs),
(370,46,ls),
(370,47,o),
(370,49,o),
(368,51,cs),
(307,102,l),
(289,45,l)
);
}
);
width = 360;
}
);
metricLeft = "Vo-arm";
},
{
glyphname = "Ayb-arm.alt.3";
lastChange = "2022-08-12 08:20:57 +0000";
layers = (
{
layerId = m01;
shapes = (
{
closed = 1;
nodes = (
(256,635,l),
(268,587,o),
(301,356,o),
(301,228,cs),
(301,120,ls),
(301,37,o),
(244,-6,o),
(183,-6,cs),
(132,-6,o),
(110,37,o),
(110,122,cs),
(110,800,l),
(50,800,l),
(50,152,ls),
(50,39,o),
(105,-16,o),
(183,-16,cs),
(271,-16,o),
(316,61,o),
(316,112,cs),
(316,635,l)
);
},
{
closed = 1;
nodes = (
(256,87,o),
(229,107,o),
(229,226,cs),
(229,373,o),
(268,552,o),
(269,630,c),
(256,635,l),
(256,552,o),
(219,369,o),
(219,224,cs),
(219,107,o),
(244,84,o),
(288,44,c),
(294,51,l)
);
},
{
closed = 1;
nodes = (
(344,1,ls),
(345,0,o),
(347,0,o),
(350,0,cs),
(428,0,ls),
(430,0,o),
(432,2,o),
(430,4,cs),
(312,105,l),
(289,45,l)
);
}
);
width = 421;
}
);
metricLeft = "Vo-arm";
},
{
glyphname = "Ayb_Co-arm.liga";
lastChange = "2022-08-12 08:58:43 +0000";
layers = (
{
layerId = m01;
shapes = (
{
closed = 1;
nodes = (
(256,567,l),
(268,524,o),
(301,356,o),
(301,228,cs),
(301,120,ls),
(301,37,o),
(244,-6,o),
(183,-6,cs),
(132,-6,o),
(110,37,o),
(110,122,cs),
(110,800,l),
(50,800,l),
(50,152,ls),
(50,39,o),
(105,-16,o),
(183,-16,cs),
(271,-16,o),
(316,61,o),
(316,112,cs),
(316,567,l)
);
},
{
closed = 1;
nodes = (
(256,82,o),
(229,100,o),
(229,205,cs),
(229,335,o),
(268,494,o),
(269,562,c),
(256,567,l),
(256,494,o),
(219,332,o),
(219,204,cs),
(219,100,o),
(244,79,o),
(288,44,c),
(294,50,l)
);
},
{
closed = 1;
nodes = (
(344,1,ls),
(345,0,o),
(347,0,o),
(350,0,cs),
(428,0,ls),
(430,0,o),
(432,2,o),
(430,4,cs),
(312,105,l),
(289,45,l)
);
},
{
closed = 1;
nodes = (
(390,143,o),
(545,-16,o),
(732,-16,cs),
(928,-16,o),
(1073,116,o),
(1073,335,cs),
(1073,517,o),
(932,681,o),
(736,681,cs),
(553,681,o),
(294,686,o),
(246,686,c),
(246,618,l),
(290,627,o),
(456,671,o),
(736,671,cs),
(887,671,o),
(1013,519,o),
(1013,335,cs),
(1013,128,o),
(901,-6,o),
(732,-6,cs),
(576,-6,o),
(462,120,o),
(462,279,c),
(390,279,l)
);
},
{
closed = 1;
nodes = (
(715,681,o),
(692,703,o),
(692,745,cs),
(692,787,o),
(715,809,o),
(736,809,cs),
(759,809,o),
(781,787,o),
(781,745,cs),
(781,703,o),
(759,681,o),
(736,681,cs)
);
},
{
closed = 1;
nodes = (
(788,674,o),
(841,703,o),
(841,745,cs),
(841,787,o),
(788,816,o),
(736,816,cs),
(686,816,o),
(632,787,o),
(632,745,cs),
(632,703,o),
(686,674,o),
(736,674,cs)
);
}
);
width = 1093;
}
);
metricLeft = "Ayb-arm";
metricRight = "Co-arm";
},
{
glyphname = "To_Yi-arm.liga";
lastChange = "2022-08-12 09:22:57 +0000";
layers = (
{
layerId = m01;
shapes = (
{
closed = 1;
nodes = (
(356,162,l),
(356,67,o),
(346,4,o),
(307,4,cs),
(279,4,o),
(257,37,o),
(257,81,cs),
(257,136,o),
(292,172,o),
(352,172,cs),
(555,172,l),
(555,182,l),
(334,182,ls),
(236,182,o),
(197,134,o),
(197,82,cs),
(197,32,o),
(234,-16,o),
(301,-16,cs),
(384,-16,o),
(416,50,o),
(416,162,c),
(416,648,l),
(416,761,o),
(321,816,o),
(233,816,cs),
(145,816,o),
(50,761,o),
(50,648,cs),
(50,0,l),
(110,0,l),
(110,678,ls),
(110,763,o),
(172,806,o),
(233,806,cs),
(294,806,o),
(356,763,o),
(356,678,c)
);
},
{
pos = (456,0);
ref = "Yi-arm";
}
);
width = 1076;
}
);
metricLeft = "To-arm";
metricRight = "Yi-arm";
},
{
glyphname = "Men_Now-arm.liga";
lastChange = "2022-08-12 08:57:33 +0000";
layers = (
{
layerId = m01;
shapes = (
{
closed = 1;
nodes = (
(650,790,ls),
(659,790,o),
(665,774,o),
(686,732,c),
(746,732,l),
(721,792,o),
(719,800,o),
(708,800,cs),
(256,800,l),
(256,790,l)
);
},
{
closed = 1;
nodes = (
(256,800,l),
(256,122,ls),
(256,37,o),
(244,-6,o),
(183,-6,cs),
(122,-6,o),
(110,37,o),
(110,122,cs),
(110,800,l),
(50,800,l),
(50,152,ls),
(50,39,o),
(105,-16,o),
(183,-16,cs),
(261,-16,o),
(316,39,o),
(316,152,cs),
(316,800,l)
);
},
{
pos = (486,800);
ref = "Vo-arm";
scale = (1,-1);
},
{
closed = 1;
nodes = (
(802,800,l),
(802,245,l),
(742,245,l),
(742,800,l)
);
},
{
closed = 1;
nodes = (
(596,800,l),
(596,660,l),
(536,660,l),
(536,800,l)
);
},
{
closed = 1;
nodes = (
(535,660,ls),
(492,660,o),
(479,676,o),
(458,728,c),
(398,728,l),
(423,658,o),
(435,650,o),
(523,650,cs),
(596,650,l),
(596,660,l)
);
}
);
width = 842;
}
);
metricLeft = "Men-arm";
metricRight = "=Now-arm-10";
},
{
glyphname = "Yiwn_Now-arm.liga";
lastChange = "2022-08-12 09:06:13 +0000";
layers = (
{
layerId = m01;
shapes = (
{
closed = 1;
nodes = (
(50,0,l),
(110,0,l),
(110,800,l),
(50,800,l)
);
},
{
closed = 1;
nodes = (
(168,581,o),
(230,585,o),
(263,593,cs),
(268,594,o),
(269,593,o),
(269,591,cs),
(269,528,ls),
(269,525,o),
(268,523,o),
(264,525,cs),
(221,547,o),
(176,563,o),
(130,572,cs),
(125,573,o),
(120,574,o),
(120,577,cs),
(120,579,o),
(121,581,o),
(126,581,cs)
);
},
{
pos = (304,800);
ref = "Vo-arm";
scale = (1,-1);
},
{
closed = 1;
nodes = (
(620,800,l),
(620,275,l),
(560,275,l),
(560,800,l)
);
},
{
closed = 1;
nodes = (
(414,800,l),
(414,732,l),
(354,732,l),
(354,800,l)
);
},
{
closed = 1;
nodes = (
(331,732,ls),
(288,732,o),
(275,748,o),
(254,800,c),
(194,800,l),
(219,730,o),
(231,722,o),
(319,722,cs),
(414,722,l),
(414,732,l)
);
}
);
width = 670;
}
);
metricLeft = "Yiwn-arm";
metricRight = "Now-arm";
},
